<?xml version="1.0" encoding="utf-8"?><svg xmlns="http://www.w3.org/2000/svg" xmlns:xlink="http://www.w3.org/1999/xlink"><symbol viewBox="0 0 22 13" id="arrowD" xmlns="http://www.w3.org/2000/svg"><path d="M22 1.267L11.028 12.238l-1.266-1.265L20.734 0 22 1.267z"/><path d="M1.314 0l10.54 11.386-1.313 1.216L.001 1.216 1.313 0z"/></symbol><symbol viewBox="0 0 10 16" id="arrowL" xmlns="http://www.w3.org/2000/svg"><path d="M8.185.585L0 8.062l1.753 1.602 8.185-7.477z"/><path d="M10 13.983L1.764 6.458.01 8.06l8.237 7.525z"/></symbol><symbol viewBox="0 0 10 19" id="fb" xmlns="http://www.w3.org/2000/svg"><path fill-rule="evenodd" clip-rule="evenodd" d="M6.445 19V9.499h2.623l.347-3.274h-2.97l.005-1.639c0-.854.08-1.311 1.307-1.311h1.64V0H6.774c-3.151 0-4.26 1.588-4.26 4.26v1.965H.55V9.5h1.964V19h3.931z"/></symbol><symbol viewBox="0 0 20 19" id="in" xmlns="http://www.w3.org/2000/svg"><path fill-rule="evenodd" clip-rule="evenodd" d="M10.5 0C7.92 0 7.594.011 6.581.057 5.571.104 4.88.264 4.276.5a4.652 4.652 0 0 0-1.683 1.095 4.664 4.664 0 0 0-1.096 1.683c-.236.604-.396 1.295-.442 2.306C1.01 6.596.998 6.92.998 9.5s.012 2.903.058 3.916c.046 1.011.206 1.702.441 2.306a4.655 4.655 0 0 0 1.096 1.683A4.653 4.653 0 0 0 4.275 18.5c.604.235 1.295.395 2.306.442 1.014.046 1.337.057 3.917.057s2.903-.011 3.916-.057c1.012-.047 1.703-.207 2.307-.442a4.65 4.65 0 0 0 1.682-1.096 4.663 4.663 0 0 0 1.097-1.683c.233-.604.393-1.295.44-2.306.046-1.013.058-1.336.058-3.916s-.012-2.904-.057-3.917c-.048-1.012-.208-1.702-.441-2.306a4.662 4.662 0 0 0-1.097-1.683A4.644 4.644 0 0 0 16.721.5c-.606-.235-1.297-.395-2.308-.442C13.4.011 13.077 0 10.496 0h.003zm-.855 1.712h.852c2.537 0 2.837.009 3.839.054.926.043 1.429.198 1.764.328.443.172.76.378 1.091.71.333.333.539.65.711 1.093.13.334.285.837.328 1.763.045 1.002.055 1.302.055 3.838 0 2.535-.01 2.836-.055 3.837-.043.926-.198 1.43-.328 1.764a2.938 2.938 0 0 1-.71 1.091 2.938 2.938 0 0 1-1.092.71c-.335.131-.838.286-1.764.328-1.002.045-1.302.055-3.839.055s-2.837-.01-3.839-.055c-.926-.043-1.429-.198-1.764-.328a2.943 2.943 0 0 1-1.092-.71 2.945 2.945 0 0 1-.711-1.092c-.13-.335-.285-.837-.327-1.764-.046-1.001-.055-1.302-.055-3.839s.01-2.836.055-3.837c.042-.927.197-1.43.327-1.764.172-.444.378-.76.71-1.093.333-.332.65-.538 1.093-.71.335-.131.838-.286 1.764-.328.877-.04 1.216-.052 2.987-.054v.003zm5.924 1.578a1.14 1.14 0 1 0 0 2.28 1.14 1.14 0 0 0 0-2.28zM10.5 4.62a4.879 4.879 0 1 0 .001 9.758 4.879 4.879 0 0 0 0-9.758zm0 1.714a3.167 3.167 0 1 1 0 6.333 3.167 3.167 0 0 1 0-6.333z"/></symbol><symbol viewBox="0 0 256 19" id="logo" xmlns="http://www.w3.org/2000/svg"><path d="M83.103 15.711l2.782-3.322c1.777 1.416 3.761 2.163 5.846 2.163 1.34 0 2.062-.464 2.062-1.288 0-.746-.593-1.159-3.04-1.726-3.838-.876-6.8-1.957-6.8-5.717 0-3.349 2.653-5.77 6.98-5.77 3.066 0 5.462.825 7.42 2.396l-2.499 3.528c-1.65-1.159-3.452-1.777-5.05-1.777-1.21 0-1.803.515-1.803 1.21 0 .825.619 1.185 3.117 1.752 4.147.901 6.723 2.24 6.723 5.665 0 3.684-2.91 5.873-7.29 5.873-3.193 0-6.233-1.004-8.448-2.987zM104.64 4.74h-5.41V.36h15.816v4.38h-5.41v13.65h-4.996V4.739zM116.72.361h14.502v4.25h-9.556V7.34h8.654v3.941h-8.654v2.859h9.685v4.249H116.72V.36zm16.669 0h8.525c2.757 0 4.663.721 5.874 1.932 1.056 1.056 1.596 2.446 1.596 4.275 0 2.756-1.468 4.585-3.709 5.537l4.301 6.284h-5.77l-3.631-5.46h-2.189v5.46h-4.997V.361zm8.294 8.653c1.699 0 2.678-.823 2.678-2.189 0-1.416-1.03-2.137-2.704-2.137h-3.271v4.326h3.297zm9.711-8.653h14.502v4.25h-9.556V7.34h8.654v3.941h-8.654v2.859h9.685v4.249h-14.631V.36zm16.049 9.014c0-5.177 4.172-9.375 9.737-9.375 5.563 0 9.685 4.147 9.685 9.375 0 5.177-4.174 9.375-9.736 9.375-5.565 0-9.686-4.147-9.686-9.375zm14.322 0c0-2.601-1.881-4.868-4.636-4.868-2.731 0-4.559 2.216-4.559 4.868 0 2.601 1.879 4.868 4.611 4.868 2.755 0 4.584-2.215 4.584-4.868zm7.189-9.014h4.996v13.65h8.733v4.378h-13.729V.36zm15.354 0h14.501v4.25h-9.556V7.34h8.655v3.941h-8.655v2.859h9.685v4.249h-14.63V.36zm21.071 4.379h-5.41V.36h15.817v4.38h-5.41v13.65h-4.997V4.739zm10.691 4.635c0-5.177 4.172-9.375 9.736-9.375 5.564 0 9.686 4.147 9.686 9.375 0 5.177-4.174 9.375-9.737 9.375-5.564 0-9.685-4.147-9.685-9.375zm14.321 0c0-2.601-1.88-4.868-4.636-4.868-2.73 0-4.559 2.216-4.559 4.868 0 2.601 1.88 4.868 4.611 4.868 2.756 0 4.584-2.215 4.584-4.868zM0 3.032h4.922v15.073h3.511V3.032h4.757V.092H0v2.94zm47.949 2.496h-3.853l-4.53 5.366V.48l-3.35 1.214v16.413h3.35v-6.15l4.423 6.15h3.986L43 11.338l4.948-5.811zm11.033 1.471a5.373 5.373 0 0 0-1.95-1.304 6.718 6.718 0 0 0-2.496-.453c-.903 0-1.735.151-2.496.453-.762.3-1.414.73-1.966 1.29A5.81 5.81 0 0 0 48.8 9.051c-.3.817-.451 1.745-.451 2.778 0 .999.147 1.902.44 2.711.29.81.702 1.5 1.234 2.068a5.463 5.463 0 0 0 1.924 1.317c.753.309 1.598.464 2.537.464.9 0 1.733-.151 2.495-.452a5.526 5.526 0 0 0 1.965-1.304 6.027 6.027 0 0 0 1.287-2.08c.31-.817.467-1.744.467-2.778 0-.996-.153-1.902-.455-2.709-.3-.81-.72-1.498-1.26-2.067zm-1.853 6.328a4.249 4.249 0 0 1-.534 1.226 2.537 2.537 0 0 1-.869.827 2.356 2.356 0 0 1-1.19.298c-.91 0-1.605-.343-2.086-1.02-.483-.68-.724-1.64-.724-2.882 0-1.1.234-2.013.695-2.736.467-.724 1.141-1.085 2.034-1.085.946 0 1.657.358 2.138 1.072.483.715.721 1.65.721 2.803 0 .533-.06 1.03-.185 1.497zM16.568.092c-.572 0-1.053.192-1.44.569-.38.382-.576.84-.576 1.378 0 .52.195.968.576 1.352.387.378.868.568 1.44.568.539 0 1.005-.19 1.399-.568.395-.384.592-.832.592-1.352 0-.539-.197-.996-.592-1.378a1.96 1.96 0 0 0-1.399-.57zm1.676 5.404h-3.377v12.609h3.377V5.496zm10.451-.116c-2.456-.182-3.845 1.16-3.845 1.16V5.502h-3.379v12.603h3.38v-7.51c0-1.277 1.066-2.312 2.382-2.312 1.314 0 2.38 1.035 2.38 2.311v7.511h3.379v-7.458c-.002-3.954-2.297-5.12-4.297-5.268zm35.215-.138v.232h-2.026v2.585h2.026v10.046h3.378s0-6.047.002-10.046h2.018V5.474H67.29v-.263c0-1.74.816-2.596 2.41-2.344L70.227.26c-5.138-.614-6.317 2.12-6.317 4.982zm14.508-2.375L78.945.26c-5.14-.613-6.317 2.121-6.317 4.982v.234h-2.026V8.06h2.026v10.046h3.379l.001-10.046h2.018V5.475H76.01V5.21c0-1.74.815-2.596 2.408-2.344z"/></symbol><symbol viewBox="0 0 31 29" id="mail" xmlns="http://www.w3.org/2000/svg"><path d="M30.685 11.435l-4.335-3.32V5.639a.832.832 0 0 0-.227-.57.772.772 0 0 0-.548-.236h-3.51L15.96.157a.757.757 0 0 0-.92 0L8.935 4.833h-3.51a.749.749 0 0 0-.548.236.808.808 0 0 0-.227.57v2.476l-4.335 3.32a.798.798 0 0 0-.232.285.831.831 0 0 0-.083.363v16.111a.833.833 0 0 0 .227.57.774.774 0 0 0 .548.236h29.45a.748.748 0 0 0 .548-.236.807.807 0 0 0 .227-.57v-16.11a.83.83 0 0 0-.083-.364.799.799 0 0 0-.232-.285zM1.55 13.545l7.473 4.905-7.473 7.794v-12.7zm8.817 5.788l4.72 3.098a.753.753 0 0 0 .826 0l4.72-3.098 7.725 8.056H2.642l7.725-8.056zm11.61-.882l7.473-4.907v12.7l-7.473-7.793zm6.875-6.42l-2.502 1.643v-3.558l2.502 1.916zM15.5 1.807l3.952 3.027h-7.904L15.5 1.806zM9.19 6.444H24.8v8.248l-9.3 6.105-9.3-6.105V6.444h2.99zm-4.54 7.23l-2.502-1.642 2.502-1.916v3.558z"/></symbol><symbol viewBox="0 0 24 17" id="menu" xmlns="http://www.w3.org/2000/svg"><path d="M24 17H0v-3h24zm-5-7H0V7h19zm5-7H0V0h24z"/></symbol><symbol viewBox="0 0 20 17" id="tw" xmlns="http://www.w3.org/2000/svg"><path fill-rule="evenodd" clip-rule="evenodd" d="M10.174 4.943l.041.657-.686-.08C7.03 5.21 4.848 4.165 2.994 2.407l-.906-.872-.233.644c-.495 1.436-.179 2.952.85 3.971.55.564.426.644-.52.309-.33-.107-.619-.188-.646-.148-.096.094.233 1.315.494 1.798.357.671 1.085 1.329 1.881 1.718l.673.308-.797.014c-.768 0-.796.013-.713.295.274.872 1.359 1.798 2.567 2.2l.85.282-.74.43a7.923 7.923 0 0 1-3.68.992c-.617.014-1.125.067-1.125.108 0 .134 1.674.885 2.65 1.18 2.923.873 6.397.497 9.005-.992 1.854-1.06 3.707-3.167 4.572-5.206.466-1.087.933-3.073.933-4.026 0-.617.041-.697.81-1.435.453-.43.879-.9.961-1.033.138-.255.124-.255-.576-.027-1.167.402-1.332.349-.755-.255.425-.43.933-1.208.933-1.436 0-.04-.206.027-.44.148-.246.134-.795.335-1.207.456l-.742.228-.672-.443c-.371-.241-.893-.51-1.167-.59-.7-.188-1.771-.161-2.403.054-1.716.603-2.8 2.16-2.677 3.864z"/></symbol><symbol viewBox="0 0 26 15" id="vk" xmlns="http://www.w3.org/2000/svg"><path fill-rule="evenodd" clip-rule="evenodd" d="M14.083 14.093s.463-.046.7-.278c.217-.212.21-.612.21-.612s-.03-1.869.925-2.145c.941-.271 2.15 1.807 3.431 2.607.969.604 1.704.472 1.704.472l3.426-.044s1.792-.1.943-1.38c-.07-.105-.496-.948-2.547-2.679-2.15-1.812-1.86-1.519.726-4.653 1.576-1.909 2.206-3.074 2.009-3.572-.187-.477-1.346-.35-1.346-.35l-3.857.021s-.286-.035-.498.08c-.207.113-.341.376-.341.376s-.61 1.477-1.424 2.733c-1.718 2.65-2.404 2.79-2.685 2.626-.653-.384-.49-1.541-.49-2.363 0-2.57.429-3.64-.835-3.917-.419-.092-.727-.153-1.8-.163-1.376-.013-2.54.004-3.2.297-.44.195-.778.631-.571.656.255.03.832.141 1.138.52.395.49.381 1.586.381 1.586s.227 3.024-.53 3.4c-.52.257-1.232-.269-2.764-2.674-.784-1.231-1.376-2.592-1.376-2.592s-.115-.255-.32-.392c-.246-.165-.591-.216-.591-.216l-3.665.021s-.55.014-.753.232c-.179.193-.013.593-.013.593s2.869 6.101 6.118 9.177c2.98 2.818 6.362 2.633 6.362 2.633h1.533z"/></symbol><symbol viewBox="0 0 20 15" id="you" xmlns="http://www.w3.org/2000/svg"><path fill-rule="evenodd" clip-rule="evenodd" d="M19.659 3.72s-.186-1.303-.756-1.877c-.722-.753-1.532-.756-1.903-.8C14.34.85 10.353.85 10.353.85h-.008s-3.989 0-6.648.192c-.371.044-1.18.047-1.904.8-.57.574-.754 1.877-.754 1.877s-.19 1.53-.19 3.06v1.435c0 1.531.19 3.06.19 3.06s.185 1.304.754 1.878c.723.753 1.673.73 2.096.808 1.52.145 6.46.19 6.46.19s3.992-.006 6.65-.197c.372-.044 1.182-.048 1.904-.801.57-.574.756-1.877.756-1.877s.19-1.53.19-3.06V6.78c0-1.53-.19-3.06-.19-3.06zM8.387 9.954V4.641l5.133 2.666-5.133 2.647z"/></symbol></svg>